<svg xmlns="http://www.w3.org/2000/svg" width="100%" height="auto" viewBox="0 0 500 500" version="1.1" preserveAspectRatio="xMidYMid meet" style="max-width: 100%; max-height: 70vh;">
	<path d="M 225.649 1.027 C 192.988 4.755, 168.500 11.852, 139.500 25.993 C 114.183 38.339, 94.003 52.835, 73.464 73.427 C 52.215 94.733, 37.533 115.308, 24.891 141.500 C 13.849 164.376, 6.368 188.730, 2.314 215 C -0.175 231.124, -0.175 268.876, 2.314 285 C 7.583 319.142, 20.273 354.301, 36.962 381 C 51.264 403.880, 75.541 431.143, 95 446.175 C 143.229 483.431, 198.844 501.685, 258 499.676 C 290.460 498.574, 317.362 492.731, 346.840 480.381 C 377.581 467.501, 402.540 450.592, 427.026 426.054 C 440.682 412.370, 453.286 396.601, 463.038 381 C 475.461 361.127, 487.664 331.502, 493.314 307.500 C 496.206 295.216, 499 277.370, 499 271.181 C 499 268.946, 499.450 266.840, 500 266.500 C 500.605 266.126, 500.994 259.090, 500.985 248.691 C 500.974 237.222, 500.647 231.999, 500 233 C 499.301 234.082, 499.026 233.142, 499.015 229.628 C 498.993 222.656, 496.329 205.307, 493.314 192.500 C 487.664 168.498, 475.461 138.873, 463.038 119 C 448.736 96.120, 424.459 68.857, 405 53.825 C 369.588 26.470, 331.486 9.839, 288.418 2.939 C 273.730 0.586, 238.828 -0.477, 225.649 1.027 M 238.500 46.100 C 228.427 46.869, 219.938 48.274, 208 51.151 C 201.649 52.681, 185.686 58.123, 184.550 59.145 C 184.028 59.615, 182.869 60, 181.975 60 C 177.053 60, 140.110 81.913, 130.500 90.533 C 128.850 92.013, 125.925 94.400, 124 95.837 C 115.263 102.360, 98.795 119.696, 87.775 133.970 C 83.606 139.369, 76 150.957, 76 151.909 C 76 152.374, 75.340 153.303, 74.533 153.973 C 72.785 155.423, 58 185.111, 58 187.170 C 58 187.957, 57.606 189.027, 57.124 189.550 C 56.026 190.740, 52.635 201.425, 50.634 210 C 43.934 238.702, 44.085 262.675, 51.151 292 C 52.681 298.351, 58.123 314.314, 59.145 315.450 C 59.615 315.972, 60 317.131, 60 318.025 C 60 322.947, 81.913 359.890, 90.533 369.500 C 92.013 371.150, 94.400 374.075, 95.837 376 C 102.360 384.737, 119.696 401.205, 133.970 412.225 C 139.369 416.394, 150.957 424, 151.909 424 C 152.374 424, 153.303 424.660, 153.973 425.467 C 155.423 427.215, 185.111 442, 187.170 442 C 187.957 442, 189.028 442.394, 189.550 442.876 C 190.740 443.974, 201.425 447.365, 210 449.366 C 238.702 456.066, 262.675 455.915, 292 448.849 C 298.351 447.319, 314.314 441.877, 315.450 440.855 C 315.972 440.385, 317.131 440, 318.025 440 C 322.947 440, 359.890 418.087, 369.500 409.467 C 371.150 407.987, 374.075 405.600, 376 404.163 C 384.737 397.640, 401.205 380.304, 412.225 366.030 C 416.394 360.631, 424 349.043, 424 348.091 C 424 347.626, 424.660 346.697, 425.467 346.027 C 427.215 344.577, 442 314.889, 442 312.830 C 442 312.043, 442.394 310.972, 442.876 310.450 C 443.974 309.260, 447.365 298.575, 449.366 290 C 456.066 261.298, 455.915 237.325, 448.849 208 C 447.319 201.649, 441.877 185.686, 440.855 184.550 C 440.385 184.027, 440 182.869, 440 181.975 C 440 177.053, 418.087 140.110, 409.467 130.500 C 407.987 128.850, 405.600 125.925, 404.163 124 C 397.640 115.263, 380.304 98.795, 366.030 87.775 C 360.631 83.606, 349.043 76, 348.091 76 C 347.626 76, 346.697 75.340, 346.027 74.533 C 344.577 72.785, 314.889 58, 312.830 58 C 312.043 58, 310.972 57.606, 310.450 57.124 C 307.340 54.256, 279.119 47.622, 265.500 46.559 C 261.100 46.215, 255.700 45.782, 253.500 45.598 C 251.300 45.413, 244.550 45.639, 238.500 46.100 M 232.500 55.924 C 220.784 57.035, 196.411 63.376, 189.764 67.042 C 188.809 67.569, 187.425 68, 186.689 68 C 182.864 68, 143.301 90.836, 140 94.949 C 139.725 95.292, 135.900 98.440, 131.500 101.946 C 120.715 110.539, 114.145 116.897, 105.747 126.871 C 94.750 139.931, 84 154.737, 84 156.823 C 84 157.336, 83.347 158.297, 82.549 158.960 C 80.576 160.597, 67.626 187.168, 65.470 194 C 64.516 197.025, 63.417 199.950, 63.029 200.500 C 62.640 201.050, 61.531 205.100, 60.565 209.500 C 59.598 213.900, 58.085 220.425, 57.202 224 C 55.996 228.882, 55.598 235.478, 55.605 250.500 C 55.612 267.756, 55.928 271.872, 57.906 280.500 C 60.216 290.577, 65.268 307.020, 67.042 310.236 C 67.569 311.191, 68 312.575, 68 313.311 C 68 317.136, 90.836 356.699, 94.949 360 C 95.292 360.275, 98.440 364.100, 101.946 368.500 C 110.539 379.285, 116.897 385.855, 126.871 394.253 C 139.931 405.250, 154.737 416, 156.823 416 C 157.336 416, 158.297 416.653, 158.960 417.451 C 160.597 419.424, 187.168 432.374, 194 434.530 C 197.025 435.484, 199.950 436.583, 200.500 436.971 C 201.050 437.360, 205.100 438.469, 209.500 439.435 C 213.900 440.402, 220.425 441.915, 224 442.798 C 228.882 444.004, 235.478 444.402, 250.500 444.395 C 267.756 444.388, 271.872 444.072, 280.500 442.094 C 290.577 439.784, 307.020 434.732, 310.236 432.958 C 311.191 432.431, 312.575 432, 313.311 432 C 317.136 432, 356.699 409.164, 360 405.051 C 360.275 404.708, 364.100 401.560, 368.500 398.054 C 379.285 389.461, 385.855 383.103, 394.253 373.129 C 405.250 360.069, 416 345.263, 416 343.177 C 416 342.664, 416.653 341.703, 417.451 341.040 C 419.424 339.403, 432.374 312.832, 434.530 306 C 435.484 302.975, 436.583 300.050, 436.971 299.500 C 437.360 298.950, 438.469 294.900, 439.435 290.500 C 440.402 286.100, 441.915 279.575, 442.798 276 C 444.004 271.118, 444.402 264.522, 444.395 249.500 C 444.388 232.244, 444.072 228.128, 442.094 219.500 C 439.784 209.423, 434.732 192.980, 432.958 189.764 C 432.431 188.809, 432 187.425, 432 186.689 C 432 182.864, 409.164 143.301, 405.051 140 C 404.708 139.725, 401.560 135.900, 398.054 131.500 C 389.461 120.715, 383.103 114.145, 373.129 105.747 C 360.069 94.750, 345.263 84, 343.177 84 C 342.664 84, 341.703 83.347, 341.040 82.549 C 339.403 80.576, 312.832 67.626, 306 65.470 C 302.975 64.516, 300.050 63.417, 299.500 63.029 C 298.950 62.640, 294.900 61.533, 290.500 60.569 C 286.100 59.606, 279.896 58.189, 276.714 57.420 C 269.784 55.747, 243.683 54.863, 232.500 55.924 M 240.102 96.089 C 229.555 97.049, 210.542 101.367, 204.562 104.161 C 202.396 105.172, 200.231 106, 199.749 106 C 198.337 106, 185.850 112.131, 181.500 114.960 C 179.300 116.390, 176.357 118.135, 174.961 118.837 C 173.565 119.538, 169.905 121.999, 166.829 124.306 C 163.752 126.613, 159.738 129.625, 157.908 131 C 153.719 134.148, 147.468 139.595, 143.531 143.527 C 136.130 150.920, 120.058 171.497, 120.020 173.628 C 120.009 174.248, 119.317 175.322, 118.482 176.015 C 117.646 176.708, 116.222 178.901, 115.317 180.888 C 114.411 182.874, 112.900 185.400, 111.958 186.500 C 111.017 187.600, 109.669 190.300, 108.964 192.500 C 108.259 194.700, 106.851 197.981, 105.835 199.791 C 104.819 201.602, 103.038 206.552, 101.877 210.791 C 100.715 215.031, 99.336 220.075, 98.811 222 C 96.572 230.209, 95.272 248.506, 96.169 259.193 C 97.100 270.292, 101.605 290.497, 104.396 296.092 C 105.278 297.860, 106 299.716, 106 300.217 C 106 301.657, 112.097 314.099, 114.960 318.500 C 116.390 320.700, 118.135 323.643, 118.837 325.039 C 119.538 326.435, 121.999 330.095, 124.306 333.171 C 126.613 336.248, 129.625 340.262, 131 342.092 C 134.148 346.281, 139.595 352.532, 143.527 356.469 C 150.920 363.870, 171.497 379.942, 173.628 379.980 C 174.248 379.991, 175.322 380.683, 176.015 381.518 C 176.708 382.354, 178.901 383.778, 180.888 384.683 C 182.874 385.589, 185.400 387.100, 186.500 388.042 C 187.600 388.983, 190.300 390.331, 192.500 391.036 C 194.700 391.741, 197.981 393.149, 199.791 394.165 C 201.602 395.181, 206.552 396.962, 210.791 398.123 C 215.031 399.285, 220.075 400.664, 222 401.189 C 230.209 403.428, 248.506 404.728, 259.193 403.831 C 270.292 402.900, 290.497 398.395, 296.092 395.604 C 297.860 394.722, 299.716 394, 300.217 394 C 301.657 394, 314.099 387.903, 318.500 385.040 C 320.700 383.610, 323.643 381.865, 325.039 381.163 C 326.435 380.462, 330.095 378.001, 333.171 375.694 C 336.248 373.387, 340.262 370.375, 342.092 369 C 346.281 365.852, 352.532 360.405, 356.469 356.473 C 363.870 349.080, 379.942 328.503, 379.980 326.372 C 379.991 325.752, 380.683 324.678, 381.518 323.985 C 382.354 323.292, 383.778 321.099, 384.683 319.112 C 385.589 317.126, 387.100 314.600, 388.042 313.500 C 388.983 312.400, 390.331 309.700, 391.036 307.500 C 391.741 305.300, 393.149 302.019, 394.165 300.209 C 395.181 298.398, 396.962 293.448, 398.123 289.209 C 399.285 284.969, 400.664 279.925, 401.189 278 C 403.428 269.791, 404.728 251.494, 403.831 240.807 C 402.900 229.708, 398.395 209.503, 395.604 203.908 C 394.722 202.140, 394 200.284, 394 199.783 C 394 198.343, 387.903 185.901, 385.040 181.500 C 383.610 179.300, 381.865 176.357, 381.163 174.961 C 380.462 173.565, 378.001 169.905, 375.694 166.829 C 373.387 163.752, 370.375 159.738, 369 157.908 C 365.852 153.719, 360.405 147.468, 356.473 143.531 C 349.080 136.130, 328.503 120.058, 326.372 120.020 C 325.752 120.009, 324.678 119.317, 323.985 118.482 C 323.292 117.646, 321.099 116.222, 319.112 115.317 C 317.126 114.411, 314.600 112.900, 313.500 111.958 C 312.400 111.017, 309.700 109.669, 307.500 108.964 C 305.300 108.259, 301.993 106.836, 300.151 105.803 C 298.309 104.769, 294.484 103.309, 291.651 102.557 C 288.818 101.806, 283.125 100.292, 279 99.191 C 274.875 98.091, 268.125 96.904, 264 96.554 C 259.875 96.204, 254.925 95.764, 253 95.576 C 251.075 95.388, 245.271 95.619, 240.102 96.089 M 235.500 106.007 C 226.875 106.886, 213.267 110.420, 206.220 113.610 C 203.317 114.924, 200.550 116, 200.072 116 C 198.884 116, 188.491 121.515, 185.017 123.988 C 183.463 125.095, 181.899 126, 181.541 126 C 180.716 126, 168.947 133.948, 167.163 135.710 C 166.428 136.436, 164.178 138.237, 162.163 139.713 C 156.958 143.525, 141.729 159.099, 137.162 165.280 C 135.041 168.152, 132.561 171.119, 131.652 171.874 C 130.744 172.628, 130 173.687, 130 174.227 C 130 174.768, 128.748 177.075, 127.219 179.355 C 125.689 181.635, 123.652 185.075, 122.691 187 C 121.731 188.925, 120.530 191.175, 120.022 192 C 117.813 195.593, 113.061 206.988, 111.473 212.500 C 110.523 215.800, 109.114 220.525, 108.342 223 C 106.112 230.149, 104.777 246.587, 105.499 258 C 106.225 269.477, 109.854 285.489, 113.609 293.780 C 114.924 296.683, 116 299.450, 116 299.928 C 116 301.116, 121.515 311.509, 123.988 314.983 C 125.095 316.537, 126 318.101, 126 318.459 C 126 319.284, 133.948 331.053, 135.710 332.837 C 136.436 333.572, 138.237 335.822, 139.713 337.837 C 143.525 343.042, 159.099 358.271, 165.280 362.838 C 168.152 364.959, 171.119 367.439, 171.874 368.348 C 172.628 369.256, 173.687 370, 174.227 370 C 174.768 370, 177.075 371.252, 179.355 372.781 C 181.635 374.311, 185.075 376.348, 187 377.309 C 188.925 378.269, 191.175 379.470, 192 379.978 C 195.593 382.187, 206.988 386.939, 212.500 388.527 C 215.800 389.477, 220.525 390.886, 223 391.658 C 230.149 393.888, 246.587 395.223, 258 394.501 C 269.477 393.775, 285.489 390.146, 293.780 386.391 C 296.683 385.076, 299.450 384, 299.928 384 C 301.116 384, 311.509 378.485, 314.983 376.012 C 316.537 374.905, 318.101 374, 318.459 374 C 319.284 374, 331.053 366.052, 332.837 364.290 C 333.572 363.564, 335.822 361.763, 337.837 360.287 C 343.042 356.475, 358.271 340.901, 362.838 334.720 C 364.959 331.848, 367.439 328.881, 368.348 328.126 C 369.256 327.372, 370 326.313, 370 325.773 C 370 325.232, 371.252 322.925, 372.781 320.645 C 374.311 318.365, 376.348 314.925, 377.309 313 C 378.269 311.075, 379.470 308.825, 379.978 308 C 382.187 304.407, 386.939 293.012, 388.527 287.500 C 389.477 284.200, 390.886 279.475, 391.658 277 C 393.888 269.851, 395.223 253.413, 394.501 242 C 393.775 230.523, 390.146 214.511, 386.391 206.220 C 385.076 203.317, 384 200.550, 384 200.072 C 384 198.884, 378.485 188.491, 376.012 185.017 C 374.905 183.463, 374 181.899, 374 181.541 C 374 180.716, 366.052 168.947, 364.290 167.163 C 363.564 166.428, 361.763 164.178, 360.287 162.163 C 356.475 156.958, 340.901 141.729, 334.720 137.162 C 331.848 135.041, 328.881 132.561, 328.126 131.652 C 327.372 130.744, 326.313 130, 325.773 130 C 325.232 130, 322.925 128.748, 320.645 127.219 C 318.365 125.689, 314.925 123.652, 313 122.691 C 311.075 121.731, 308.825 120.530, 308 120.022 C 304.417 117.819, 293.017 113.062, 287.500 111.468 C 284.200 110.515, 279.400 109.095, 276.832 108.314 C 267.387 105.440, 250.376 104.490, 235.500 106.007 M 241.548 146.083 C 233.842 146.915, 224.319 149.205, 220.764 151.083 C 219.809 151.587, 218.408 152, 217.652 152 C 215.620 152, 202.295 159.040, 195.455 163.728 C 162.472 186.334, 142.739 223.900, 146.114 257.663 C 146.960 266.117, 149.129 275.535, 151.083 279.236 C 151.587 280.191, 152 281.592, 152 282.348 C 152 284.380, 159.040 297.705, 163.728 304.545 C 186.334 337.528, 223.900 357.261, 257.663 353.886 C 266.117 353.040, 275.535 350.871, 279.236 348.917 C 280.191 348.413, 281.592 348, 282.348 348 C 284.380 348, 297.705 340.960, 304.545 336.272 C 337.528 313.666, 357.261 276.100, 353.886 242.337 C 353.040 233.883, 350.871 224.465, 348.917 220.764 C 348.413 219.809, 348 218.408, 348 217.652 C 348 216.895, 346.279 212.931, 344.177 208.843 C 329.473 180.259, 304.850 159.049, 275.500 149.687 C 268.303 147.391, 264.645 146.722, 253 145.571 C 251.075 145.380, 245.921 145.611, 241.548 146.083 M 239 155.644 C 232.677 156.457, 221.647 160.144, 213 164.333 C 208.325 166.598, 204.275 168.709, 204 169.024 C 203.725 169.339, 201.925 170.693, 200 172.034 C 194.191 176.080, 192.893 177.185, 184.282 185.427 C 179.727 189.787, 176 193.721, 176 194.169 C 176 194.616, 174.414 197.061, 172.475 199.600 C 170.537 202.140, 168.028 206.081, 166.901 208.359 C 165.773 210.636, 164 214.075, 162.961 216 C 161.922 217.925, 160.325 221.975, 159.411 225 C 158.498 228.025, 157.281 231.512, 156.707 232.749 C 156.132 233.987, 155.637 241.412, 155.605 249.249 C 155.555 261.476, 155.879 264.565, 157.881 271 C 159.965 277.697, 167.549 294.711, 169.024 296 C 169.339 296.275, 170.693 298.075, 172.034 300 C 176.080 305.809, 177.185 307.107, 185.427 315.718 C 189.787 320.273, 193.721 324, 194.169 324 C 194.616 324, 197.061 325.586, 199.600 327.525 C 202.140 329.463, 206.081 331.972, 208.359 333.099 C 210.636 334.227, 214.075 336, 216 337.039 C 217.925 338.078, 221.975 339.675, 225 340.589 C 228.025 341.502, 231.512 342.719, 232.749 343.293 C 233.987 343.868, 241.412 344.363, 249.249 344.395 C 261.476 344.445, 264.565 344.121, 271 342.119 C 277.697 340.035, 294.711 332.451, 296 330.976 C 296.275 330.661, 298.075 329.307, 300 327.966 C 305.809 323.920, 307.107 322.815, 315.718 314.573 C 320.273 310.213, 324 306.279, 324 305.831 C 324 305.384, 325.586 302.939, 327.525 300.400 C 329.463 297.860, 331.972 293.919, 333.099 291.641 C 334.227 289.364, 336 285.925, 337.039 284 C 338.078 282.075, 339.675 278.025, 340.589 275 C 341.502 271.975, 342.719 268.488, 343.293 267.251 C 343.868 266.013, 344.363 258.588, 344.395 250.751 C 344.445 238.524, 344.121 235.435, 342.119 229 C 340.035 222.303, 332.451 205.289, 330.976 204 C 330.661 203.725, 329.307 201.925, 327.966 200 C 323.920 194.191, 322.815 192.893, 314.573 184.282 C 310.213 179.727, 306.279 176, 305.831 176 C 305.384 176, 302.939 174.414, 300.400 172.475 C 297.860 170.537, 293.919 168.028, 291.641 166.901 C 289.364 165.773, 285.925 164, 284 162.961 C 282.075 161.922, 278.025 160.332, 275 159.427 C 271.975 158.523, 268.767 157.412, 267.871 156.959 C 265.954 155.988, 244.068 154.992, 239 155.644 M 245.500 226.002 C 233.741 227.826, 225.824 237.483, 225.824 250 C 225.824 264.407, 235.593 274.176, 250 274.176 C 264.407 274.176, 274.176 264.407, 274.176 250 C 274.176 234.109, 261.519 223.517, 245.500 226.002 M 0.411 250 C 0.411 259.625, 0.561 263.563, 0.745 258.750 C 0.928 253.937, 0.928 246.062, 0.745 241.250 C 0.561 236.438, 0.411 240.375, 0.411 250" stroke="none" fill="black" fill-rule="evenodd"/>
</svg>