<?xml version="1.0" encoding="UTF-8"?>
<svg version="1.1" xmlns="http://www.w3.org/2000/svg" width="1024" height="1024">
<path d="M0 0 C337.92 0 675.84 0 1024 0 C1024 337.92 1024 675.84 1024 1024 C686.08 1024 348.16 1024 0 1024 C0 686.08 0 348.16 0 0 Z " fill="#040404" transform="translate(0,0)"/>
<path d="M0 0 C2.28484648 1.20869641 4.53853628 2.42195392 6.75585938 3.75048828 C7.5829541 4.24299072 8.41004883 4.73549316 9.26220703 5.24291992 C10.60484619 6.04910767 10.60484619 6.04910767 11.97460938 6.87158203 C13.95079991 8.04928975 15.92738307 9.22633881 17.90429688 10.40283203 C18.96229492 11.03318359 20.02029297 11.66353516 21.11035156 12.31298828 C24.62299593 14.39712328 28.14427749 16.46580021 31.66992188 18.52783203 C32.59336395 19.06802223 32.59336395 19.06802223 33.53546143 19.61912537 C36.52943371 21.36995593 39.52419262 23.11942735 42.51953125 24.86791992 C44.25197101 25.88142676 45.98451088 26.89681417 47.67530823 27.97836304 C51.28736551 30.24610848 54.63716906 31.72662731 58.72631836 32.9675293 C64.97152855 35.18805774 69.81172064 37.6050411 73.47460938 43.30908203 C77.53873179 55.0635238 76.57038822 68.74371428 76.35668945 80.98803711 C76.28781454 85.08002191 76.32230071 89.14875535 76.45922852 93.23901367 C77.58499808 126.88806949 77.58499808 126.88806949 71.08691406 134.5597229 C65.27076063 139.72040217 58.72333899 142.64753013 51.44796753 145.22341919 C47.66156893 146.60594765 44.56400874 148.42428012 41.15429688 150.56298828 C39.22070992 151.66814604 37.28586267 152.77110242 35.34960938 153.87158203 C28.78689636 157.6077129 22.28147857 161.39370916 15.90039062 165.43408203 C14.85061035 166.094646 13.80083008 166.75520996 12.71923828 167.43579102 C10.725716 168.69810041 8.74172056 169.97562117 6.76904297 171.27026367 C5.43800537 172.1112561 5.43800537 172.1112561 4.08007812 172.96923828 C3.30817139 173.47076416 2.53626465 173.97229004 1.7409668 174.48901367 C-0.52539062 175.30908203 -0.52539062 175.30908203 -3.01831055 174.62158203 C-5.46090561 173.34284106 -7.86804004 172.04775142 -10.24414062 170.64892578 C-11.16187256 170.11106445 -12.07960449 169.57320312 -13.02514648 169.01904297 C-14.01522705 168.43413086 -15.00530762 167.84921875 -16.02539062 167.24658203 C-17.06767822 166.63459961 -18.10996582 166.02261719 -19.18383789 165.39208984 C-21.44059714 164.06679447 -23.69662278 162.74032523 -25.95166016 161.41210938 C-29.61748807 159.25366808 -33.28782185 157.10296555 -36.95898438 154.95361328 C-42.490429 151.71483466 -48.02004998 148.47296937 -53.54824829 145.22865295 C-57.06639764 143.1642205 -60.58628223 141.10278435 -64.10742188 139.04345703 C-65.66342967 138.13202979 -67.21942092 137.22057429 -68.77539062 136.30908203 C-69.46624756 135.90592773 -70.15710449 135.50277344 -70.86889648 135.08740234 C-75.41194191 132.42253075 -75.41194191 132.42253075 -76.52539062 131.30908203 C-76.7056737 128.62462992 -76.82075951 125.96427589 -76.89282227 123.27612305 C-76.91866898 122.43372574 -76.94451569 121.59132843 -76.97114563 120.72340393 C-77.19726122 112.92498345 -77.33101598 105.1246437 -77.43651676 97.32374668 C-77.50869751 92.0822498 -77.61123228 86.84532185 -77.78735352 81.60620117 C-77.95687279 76.54060268 -78.04684321 71.47918244 -78.08236504 66.41093254 C-78.10929423 64.48437499 -78.16399854 62.55798811 -78.2476368 60.63305855 C-78.85555864 45.97951144 -78.85555864 45.97951144 -74.98141479 41.53964806 C-71.18397495 38.40185296 -67.00124122 36.23084995 -62.52214241 34.22802639 C-59.56010818 32.86484011 -56.83742007 31.19601771 -54.04882812 29.50830078 C-52.00086811 28.33507209 -49.95137239 27.16452021 -47.90039062 25.99658203 C-39.41141176 21.13072025 -30.94565542 16.23052353 -22.52539062 11.24658203 C-21.66091309 10.73506592 -20.79643555 10.2235498 -19.90576172 9.6965332 C-19.07898926 9.20644775 -18.2522168 8.7163623 -17.40039062 8.21142578 C-16.19962891 7.50735596 -16.19962891 7.50735596 -14.97460938 6.7890625 C-13.24471122 5.74374326 -11.54081707 4.65480191 -9.85742188 3.53613281 C-8.54837891 2.68317627 -8.54837891 2.68317627 -7.21289062 1.81298828 C-6.43300781 1.28648682 -5.653125 0.75998535 -4.84960938 0.2175293 C-2.52539062 -0.69091797 -2.52539062 -0.69091797 0 0 Z " fill="#040404" transform="translate(175.525390625,424.69091796875)"/>
<path d="M0 0 C2.5859375 1.35546875 2.5859375 1.35546875 5.375 3.1875 C6.52016719 3.92105053 7.66749373 4.6512358 8.81640625 5.37890625 C9.46754395 5.79156738 10.11868164 6.20422852 10.78955078 6.62939453 C15.24072702 9.38937944 19.78325807 11.99589051 24.3125 14.625 C25.34213867 15.22393066 26.37177734 15.82286133 27.43261719 16.43994141 C29.55941809 17.67681131 31.68653752 18.91313365 33.81396484 20.14892578 C47.04252974 27.8346713 60.25715452 35.54431635 73.4375 43.3125 C74.8598999 44.14890015 74.8598999 44.14890015 76.31103516 45.00219727 C77.60920166 45.76874634 77.60920166 45.76874634 78.93359375 46.55078125 C79.69728271 47.00106689 80.46097168 47.45135254 81.24780273 47.9152832 C83 49 83 49 84 50 C84.16469818 53.12276895 84.26372876 56.22442016 84.31982422 59.34985352 C84.34085205 60.3320134 84.36187988 61.31417328 84.38354492 62.32609558 C84.56666028 71.40485056 84.67260141 80.48491075 84.75568962 89.56507969 C84.812314 95.668812 84.89387792 101.76991566 85.03564453 107.87231445 C85.17205096 113.7676299 85.24451808 119.66056121 85.27234268 125.55735588 C85.29381122 127.80348387 85.33785427 130.04951557 85.405056 132.29474068 C85.89415826 149.42546887 85.89415826 149.42546887 82.74906158 153.7002697 C79.28540607 156.82328516 75.34356732 158.36370477 71 160 C69.14664481 161.04736684 67.30898975 162.12383762 65.5 163.24609375 C63.66751031 164.31134842 61.83414776 165.37510272 60 166.4375 C57.91129936 167.65207041 55.82276533 168.86692736 53.734375 170.08203125 C52.64447266 170.7157666 51.55457031 171.34950195 50.43164062 172.00244141 C44.98717264 175.17166715 39.54877958 178.35120464 34.11282349 181.53500366 C32.2597682 182.61928432 30.40524541 183.70102058 28.55053711 184.7824707 C22.96413256 188.04563664 17.4074795 191.34346681 11.92578125 194.78125 C11.01086914 195.35020996 10.09595703 195.91916992 9.15332031 196.50537109 C7.48069603 197.5509977 5.81652325 198.61032513 4.16308594 199.68603516 C3.06335449 200.37125244 3.06335449 200.37125244 1.94140625 201.0703125 C1.31951416 201.47008301 0.69762207 201.86985352 0.05688477 202.28173828 C-2.96675135 203.33758843 -4.92405884 202.8140297 -8 202 C-10.99414063 200.53222656 -10.99414063 200.53222656 -14.15625 198.640625 C-14.73160995 198.3000708 -15.30696991 197.9595166 -15.89976501 197.60864258 C-17.77186373 196.49781893 -19.63581261 195.3740404 -21.5 194.25 C-22.80683424 193.47142564 -24.11421352 192.69376543 -25.42211914 191.91699219 C-28.05265525 190.35302455 -30.68020913 188.78423449 -33.30517578 187.2109375 C-37.45219434 184.72654481 -41.61510221 182.26949012 -45.78027344 179.81567383 C-48.42183287 178.25923128 -51.06090057 176.69864828 -53.69921875 175.13671875 C-57.42959961 172.92862909 -61.16151116 170.72315618 -64.89453125 168.51953125 C-66.36418335 167.65183105 -66.36418335 167.65183105 -67.86352539 166.76660156 C-69.71544268 165.67327646 -71.56748263 164.58015908 -73.41967773 163.48730469 C-75.94800391 161.99413614 -78.4746283 160.4981597 -81 159 C-82.39895508 158.17024658 -82.39895508 158.17024658 -83.82617188 157.32373047 C-84.73431641 156.78248535 -85.64246094 156.24124023 -86.578125 155.68359375 C-87.4021582 155.1930249 -88.22619141 154.70245605 -89.07519531 154.19702148 C-91 153 -91 153 -92 152 C-92.14336881 148.86632073 -92.22120335 145.75400531 -92.25634766 142.6184082 C-92.27095032 141.63303574 -92.28555298 140.64766327 -92.30059814 139.63243103 C-92.42666963 130.53257859 -92.4953443 121.43183926 -92.54844093 112.33129597 C-92.58422633 106.21248639 -92.63757756 100.09498892 -92.73388672 93.97680664 C-92.82662048 88.06867578 -92.8753486 82.16170705 -92.89283371 76.25288963 C-92.90694517 73.99970704 -92.93662337 71.74656629 -92.98213577 69.49379921 C-93.04278808 66.33733608 -93.04687196 63.18549006 -93.03759766 60.02856445 C-93.06838409 59.09793182 -93.09917053 58.16729919 -93.13088989 57.20846558 C-93.08798561 54.52236696 -92.95054019 52.51625495 -92 50 C-89.28600798 47.39380026 -86.33350811 45.70551449 -83 44 C-81.44635742 43.05979004 -81.44635742 43.05979004 -79.86132812 42.10058594 C-78.92740234 41.56723633 -77.99347656 41.03388672 -77.03125 40.484375 C-75.97494385 39.87859619 -74.9186377 39.27281738 -73.83032227 38.64868164 C-72.73131592 38.0221167 -71.63230957 37.39555176 -70.5 36.75 C-68.74602599 35.74476527 -66.99279819 34.73823812 -65.23963928 33.73158264 C-63.52449488 32.74677619 -61.80888217 31.76278549 -60.09326172 30.77880859 C-56.23702928 28.56124667 -52.39455856 26.32153121 -48.5625 24.0625 C-47.92973145 23.68947754 -47.29696289 23.31645508 -46.64501953 22.93212891 C-42.16226216 20.28476259 -37.68512606 17.6278987 -33.20703125 14.97265625 C-32.60526566 14.6158931 -32.00350006 14.25912994 -31.38349915 13.89155579 C-28.37168564 12.10587395 -25.36029898 10.31948147 -22.34985352 8.53149414 C-20.17350346 7.2400528 -17.99422809 5.95352353 -15.81152344 4.67285156 C-14.14043708 3.67855808 -12.48167079 2.66222567 -10.85253906 1.60058594 C-6.84569313 -0.96159993 -4.55322511 -1.49115054 0 0 Z M-10.51953125 16.12109375 C-11.3627594 16.61784607 -11.3627594 16.61784607 -12.22302246 17.12463379 C-14.08860807 18.22487049 -15.95052921 19.33115862 -17.8125 20.4375 C-19.11522378 21.20754375 -20.41820607 21.97715031 -21.72143555 22.74633789 C-23.7517516 23.94486417 -25.78180478 25.14381969 -27.81086731 26.34446716 C-32.46861986 29.10017917 -37.13673588 31.83747488 -41.8125 34.5625 C-43.0835929 35.3040914 -44.35467055 36.04570894 -45.62573242 36.78735352 C-47.999844 38.17248157 -50.37515411 39.55547656 -52.7512207 40.93725586 C-54.92976713 42.2105926 -57.09629504 43.50481122 -59.24775696 44.82339478 C-61.80529249 46.35940396 -64.38408258 47.65789443 -67.10153198 48.88645935 C-74.79546253 52.53837028 -74.79546253 52.53837028 -79.9290905 59.02353477 C-81.42540556 64.90684711 -81.16718297 70.92160691 -81.01953125 76.9453125 C-81.02269577 78.88485191 -81.03105947 80.8243891 -81.0443573 82.7638855 C-81.05437333 86.81567253 -81.0085007 90.86177037 -80.92114258 94.91259766 C-80.81299602 100.09160493 -80.83457556 105.26030237 -80.89670277 110.43974495 C-80.93211611 114.44014175 -80.90400092 118.43815522 -80.85642052 122.43835068 C-80.84027357 124.34635725 -80.84238707 126.25461325 -80.86353493 128.16257095 C-81.22404282 138.91840473 -81.22404282 138.91840473 -76.21554565 147.85639954 C-73.02269195 150.04486665 -69.57525806 151.52978847 -66 153 C-64.75780483 153.70504372 -63.5266895 154.43118648 -62.32226562 155.19897461 C-61.35998047 155.76108643 -60.39769531 156.32319824 -59.40625 156.90234375 C-58.28734375 157.55710693 -57.1684375 158.21187012 -56.015625 158.88647461 C-54.84380124 159.57023756 -53.671925 160.25391058 -52.5 160.9375 C-50.61564839 162.03823178 -48.73150811 163.13932455 -46.84741211 164.24049377 C-45.55015084 164.99867413 -44.25278705 165.75667908 -42.95532227 166.51451111 C-38.24395769 169.2678628 -33.54234313 172.03742256 -28.84375 174.8125 C-26.86742605 175.97789747 -24.89090902 177.14296667 -22.91430664 178.30789185 C-21.64716165 179.05561809 -20.38071152 179.80452327 -19.11499023 180.55465698 C-17.34935314 181.60082455 -15.5812146 182.64264015 -13.8125 183.68359375 C-12.80832031 184.27712646 -11.80414063 184.87065918 -10.76953125 185.48217773 C-7.0109671 187.54578279 -7.0109671 187.54578279 -3 189 C-0.98158318 188.46726197 -0.98158318 188.46726197 0.84375 187.16796875 C1.94819458 186.47803833 1.94819458 186.47803833 3.07495117 185.77416992 C3.87521729 185.25056885 4.6754834 184.72696777 5.5 184.1875 C7.29672963 183.06018973 9.09500135 181.93533479 10.89453125 180.8125 C11.87115723 180.19761719 12.8477832 179.58273437 13.85400391 178.94921875 C19.56270872 175.41217861 25.38185803 172.0620097 31.1875 168.6875 C35.46376589 166.22282152 35.46376589 166.22282152 39.67036438 163.64320374 C43.78738302 161.06709154 47.8129215 159.30481753 52.39135742 157.66699219 C59.48144001 154.81130492 66.75476307 151.68516948 71 145 C75.67252612 133.35403133 74.48049464 119.26729442 74.09448242 106.98486328 C73.9347734 101.88437963 73.98809433 96.81164594 74.09933376 91.71080494 C75.12061161 72.02598722 75.12061161 72.02598722 68.92141724 53.97592163 C63.88296168 49.34512332 58.18567633 46.99419584 51.73165894 44.9309082 C47.90614474 43.62723061 44.70682913 41.66483876 41.31640625 39.50390625 C39.06514384 38.19003618 36.81384224 36.87623327 34.5625 35.5625 C24.25201524 29.54408224 14.01830875 23.41811566 3.87915039 17.11352539 C2.99735107 16.56946045 2.11555176 16.02539551 1.20703125 15.46484375 C0.05424683 14.74735962 0.05424683 14.74735962 -1.12182617 14.01538086 C-4.95657729 11.94223256 -7.02966652 14.05430207 -10.51953125 16.12109375 Z " fill="#FAFAFA" transform="translate(178,411)"/>
<path d="M0 0 C6.27 0 12.54 0 19 0 C20.93312841 5.1550091 22.54018692 9.67976786 23.8125 14.9375 C24.05299072 15.91722778 24.05299072 15.91722778 24.29833984 16.91674805 C25.40164504 21.43497233 26.46062 25.96338644 27.51953125 30.4921875 C27.91724731 32.18033569 27.91724731 32.18033569 28.32299805 33.90258789 C28.85229937 36.153045 29.37601985 38.40482295 29.89379883 40.65795898 C30.13767334 41.69509033 30.38154785 42.73222168 30.6328125 43.80078125 C30.95596436 45.19550659 30.95596436 45.19550659 31.28564453 46.6184082 C31.94277793 49.2307857 31.94277793 49.2307857 34 52 C36.21564832 44.56343569 38.25934019 37.12441119 40 29.5625 C42.2958735 19.59482807 44.76330971 9.71007087 48 0 C54.6 0 61.2 0 68 0 C68.37511719 1.45148438 68.75023437 2.90296875 69.13671875 4.3984375 C73.17995497 19.9987124 77.24054195 35.59947721 82 51 C84.03185347 47.43976118 84.93626838 43.70288057 85.875 39.75 C86.22647885 38.30857335 86.57804375 36.86716768 86.9296875 35.42578125 C87.10725586 34.69053223 87.28482422 33.9552832 87.46777344 33.19775391 C88.2969135 29.77393791 89.14679184 26.3553862 90 22.9375 C90.16193848 22.28749023 90.32387695 21.63748047 90.49072266 20.96777344 C92.24613686 13.95653451 94.12102056 6.97906651 96 0 C102.6 0 109.2 0 116 0 C114.78917397 5.44871712 113.58786256 10.68504101 112.04467773 16.0168457 C111.86067413 16.65547043 111.67667053 17.29409515 111.48709106 17.95207214 C110.88848297 20.02739056 110.28605243 22.10157773 109.68359375 24.17578125 C109.2626023 25.63299656 108.8418763 27.09028859 108.42140198 28.5476532 C107.32107339 32.35909951 106.21758705 36.16962383 105.11328125 39.97991943 C103.34175868 46.09464831 101.57538169 52.21086621 99.80845833 58.32692528 C99.19278006 60.45650653 98.57592687 62.58574454 97.95884705 64.71492004 C97.58119212 66.01998463 97.20355157 67.32505337 96.82592773 68.63012695 C96.4966478 69.76658157 96.16736786 70.90303619 95.82810974 72.07392883 C95.17788706 74.37144781 94.57911611 76.68353555 94 79 C87.07 79 80.14 79 73 79 C68.99487915 65.73430783 65.0265227 52.46480913 61.5 39.0625 C61.24524902 38.10529053 60.99049805 37.14808105 60.72802734 36.16186523 C60.38312256 34.83070679 60.38312256 34.83070679 60.03125 33.47265625 C59.83080078 32.70187744 59.63035156 31.93109863 59.42382812 31.13696289 C59 29 59 29 59 25 C58.34 25 57.68 25 57 25 C56.81630859 26.47919922 56.81630859 26.47919922 56.62890625 27.98828125 C56.03254879 32.13374342 55.02594067 36.1474306 53.9375 40.1875 C53.72778564 40.97616455 53.51807129 41.7648291 53.30200195 42.57739258 C50.02940848 54.76223742 46.49951294 66.87887674 43 79 C39.70849875 79.08685287 36.4172904 79.14033895 33.125 79.1875 C32.18785156 79.21263672 31.25070312 79.23777344 30.28515625 79.26367188 C29.38925781 79.27333984 28.49335937 79.28300781 27.5703125 79.29296875 C26.74289551 79.3086792 25.91547852 79.32438965 25.06298828 79.34057617 C24.38220215 79.22818604 23.70141602 79.1157959 23 79 C21.00162674 76.00244011 20.30990797 73.92587608 19.4140625 70.4765625 C19.1250708 69.37924805 18.8360791 68.28193359 18.53833008 67.15136719 C18.23693115 65.98766602 17.93553223 64.82396484 17.625 63.625 C15.51907381 55.6401883 13.38105427 47.70054258 10.88671875 39.828125 C9.36179116 34.96447929 7.99880458 30.05491301 6.61230469 25.15039062 C5.8870376 22.60328038 5.15071284 20.05946604 4.4140625 17.515625 C4.00196533 16.08766602 4.00196533 16.08766602 3.58154297 14.63085938 C3.03303206 12.73055735 2.48261767 10.83080358 1.93017578 8.93164062 C1.67993652 8.06216797 1.42969727 7.19269531 1.171875 6.296875 C0.9459668 5.51666992 0.72005859 4.73646484 0.48730469 3.93261719 C0 2 0 2 0 0 Z " fill="#FAFAFA" transform="translate(577,486)"/>
<path d="M0 0 C6.27 0 12.54 0 19 0 C19 14.52 19 29.04 19 44 C35.17 44 51.34 44 68 44 C68 29.48 68 14.96 68 0 C74.27 0 80.54 0 87 0 C87 34.98 87 69.96 87 106 C80.73 106 74.46 106 68 106 C68 90.82 68 75.64 68 60 C51.83 60 35.66 60 19 60 C19 75.18 19 90.36 19 106 C12.73 106 6.46 106 0 106 C0 71.02 0 36.04 0 0 Z " fill="#FCFCFC" transform="translate(311,459)"/>
<path d="M0 0 C0.67160156 0.350625 1.34320312 0.70125 2.03515625 1.0625 C7.5744978 4.4496133 11.03251072 10.0036207 12.55198669 16.28007507 C13.02836707 19.17221876 13.12002351 21.86939846 13.11352539 24.80004883 C13.11341209 26.51125664 13.11341209 26.51125664 13.11329651 28.2570343 C13.10813522 29.47803329 13.10297394 30.69903229 13.09765625 31.95703125 C13.0962413 33.21513107 13.09482635 34.4732309 13.09336853 35.76945496 C13.08872573 39.10178529 13.07975228 42.43404632 13.06866455 45.76635742 C13.05840503 49.17170617 13.05386121 52.5770621 13.04882812 55.98242188 C13.03780829 62.65496945 13.02054835 69.32747524 13 76 C6.73 76 0.46 76 -6 76 C-6.495 72.04 -6.495 72.04 -7 68 C-7.50789062 68.48210937 -8.01578125 68.96421875 -8.5390625 69.4609375 C-9.22742188 70.09257813 -9.91578125 70.72421875 -10.625 71.375 C-11.29789063 72.00148438 -11.97078125 72.62796875 -12.6640625 73.2734375 C-17.84189473 77.10053089 -23.17603188 77.35978898 -29.375 77.3125 C-30.13014893 77.30758545 -30.88529785 77.3026709 -31.66333008 77.29760742 C-40.1218852 77.11900231 -45.87431817 74.98322411 -52 69 C-56.91135012 62.05636708 -56.90068086 54.26988786 -56 46 C-53.87644112 39.7377604 -49.95847827 36.63007144 -44.25 33.5625 C-37.53260748 30.57424818 -31.20369936 29.37953279 -23.9609375 28.515625 C-23.24647461 28.42958008 -22.53201172 28.34353516 -21.79589844 28.25488281 C-20.37579435 28.08814994 -18.95454191 27.93085803 -17.53222656 27.78417969 C-13.97030234 27.38802251 -11.07589528 26.89285863 -8 25 C-7.37018009 19.02662773 -7.37018009 19.02662773 -10.375 14.0625 C-15.32313052 10.17468316 -19.8589914 10.39013432 -26 11 C-28.94890853 11.97414573 -30.46711671 13.04756913 -33 15 C-33.433125 15.9075 -33.86625 16.815 -34.3125 17.75 C-36 20 -36 20 -38.15234375 20.38671875 C-43.43881838 20.49006337 -48.02227624 19.73138218 -53 18 C-52.37591298 11.44708629 -49.59526825 7.30581784 -44.875 2.875 C-32.80340352 -6.70163186 -13.4710656 -7.29982877 0 0 Z " fill="#F9F9F9" transform="translate(758,489)"/>
<path d="M0 0 C7.92904387 6.59379948 10.83521604 15.53118824 12.625 25.375 C12.625 29.665 12.625 33.955 12.625 38.375 C-5.855 38.375 -24.335 38.375 -43.375 38.375 C-39.79915781 50.77602823 -39.79915781 50.77602823 -30.375 58.375 C-24.40505256 60.36498248 -18.90683766 59.73343525 -13.16015625 57.44140625 C-11.01661359 56.32465424 -11.01661359 56.32465424 -9.125 53.1875 C-6.375 50.375 -6.375 50.375 -3.61328125 49.953125 C1.52792505 49.92783001 6.59426802 50.25705956 11.625 51.375 C10.51917783 58.60733119 6.44222365 64.2478665 0.75 68.75 C-8.56922516 75.17030588 -19.28078166 76.2856237 -30.375 75.375 C-40.34615317 73.08202785 -49.24121416 68.00961446 -55.09375 59.5234375 C-62.1449949 47.69970368 -62.80856253 34.75188838 -60.94921875 21.29296875 C-58.33222212 11.35480362 -52.51870942 3.15987213 -43.8203125 -2.25390625 C-43.01335937 -2.70636719 -42.20640625 -3.15882813 -41.375 -3.625 C-40.77429688 -3.98464844 -40.17359375 -4.34429687 -39.5546875 -4.71484375 C-27.73069874 -10.46777102 -10.43838945 -6.91961034 0 0 Z " fill="#FAFAFA" transform="translate(475.375,491.625)"/>
<path d="M0 0 C1.09538086 -0.01836914 1.09538086 -0.01836914 2.21289062 -0.03710938 C11.60869149 -0.06207607 19.27361573 2.48274026 26.8125 8.1875 C37.34663583 18.87919769 37.8125 30.55455801 37.8125 45.1875 C19.3325 45.1875 0.8525 45.1875 -18.1875 45.1875 C-14.67735486 57.56444868 -14.67735486 57.56444868 -5.875 65.0625 C0.58966825 67.03477167 5.83017976 66.72560749 12.02734375 64.25390625 C14.17088641 63.13715424 14.17088641 63.13715424 16.0625 60 C18.8125 57.1875 18.8125 57.1875 21.57421875 56.765625 C26.71542505 56.74033001 31.78176802 57.06955956 36.8125 58.1875 C36.20348473 64.68366291 32.28840248 70.0827861 27.625 74.4375 C19.91522371 80.40320427 12.82583622 81.54660524 3.25 81.625 C2.3636084 81.63515137 1.4772168 81.64530273 0.56396484 81.65576172 C-9.98469312 81.5167317 -18.2266913 78.1311696 -26.1875 71.1875 C-35.16265136 61.34750537 -37.07388409 48.33813979 -36.5703125 35.50390625 C-35.78090456 24.18657673 -31.07860309 15.50691558 -22.8125 7.9375 C-15.83784553 2.2492818 -8.92773763 0.00767647 0 0 Z " fill="#FBFBFB" transform="translate(900.1875,484.8125)"/>
<path d="M0 0 C6.6 0 13.2 0 20 0 C24.95 8.58 29.9 17.16 35 26 C37.68799399 23.31200601 39.21883822 21.17089924 41.1015625 17.9296875 C41.96007812 16.46208984 41.96007812 16.46208984 42.8359375 14.96484375 C43.42632813 13.94519531 44.01671875 12.92554688 44.625 11.875 C45.80343583 9.85083328 46.98305865 7.82735698 48.1640625 5.8046875 C48.68436035 4.90733887 49.2046582 4.00999023 49.74072266 3.08544922 C51 1 51 1 52 0 C53.4887186 -0.08669432 54.981445 -0.10703494 56.47265625 -0.09765625 C57.37177734 -0.09443359 58.27089844 -0.09121094 59.19726562 -0.08789062 C60.61555664 -0.07532227 60.61555664 -0.07532227 62.0625 -0.0625 C63.4865918 -0.05573242 63.4865918 -0.05573242 64.93945312 -0.04882812 C67.29303065 -0.0370011 69.64648477 -0.02052025 72 0 C66.68216749 10.22086362 60.55064613 19.91978587 54.4387207 29.67919922 C53.96394287 30.44506348 53.48916504 31.21092773 53 32 C52.42403076 32.81871582 51.84806152 33.63743164 51.25463867 34.48095703 C49.78939302 36.90453633 49.78939302 36.90453633 50.13256836 39.49609375 C51.09862497 42.28468833 52.3222905 44.55413302 53.87890625 47.0625 C54.46720215 48.01882324 55.05549805 48.97514648 55.66162109 49.96044922 C56.28891113 50.96350098 56.91620117 51.96655273 57.5625 53 C58.19494629 54.02496582 58.82739258 55.04993164 59.47900391 56.10595703 C61.31242082 59.07499436 63.1549562 62.03817822 65 65 C66.28299477 67.06789079 67.56460208 69.13660829 68.84350586 71.20703125 C69.80569061 72.76292385 70.77371534 74.31520073 71.7421875 75.8671875 C73 78 73 78 73 79 C66.07 79 59.14 79 52 79 C49.85973568 75.33607132 47.72218489 71.67082417 45.59130859 68.00146484 C44.8653251 66.75316303 44.13779158 65.50576135 43.40869141 64.25927734 C42.36213798 62.4694574 41.32116617 60.67649488 40.28125 58.8828125 C39.65283203 57.80402832 39.02441406 56.72524414 38.37695312 55.61376953 C37 53 37 53 37 51 C33.89344519 53.87060327 31.84292821 56.69075397 29.80078125 60.38671875 C29.23166016 61.40701172 28.66253906 62.42730469 28.07617188 63.47851562 C27.49416016 64.53748047 26.91214844 65.59644531 26.3125 66.6875 C25.14320996 68.79628476 23.97270397 70.90439592 22.80078125 73.01171875 C22.28684814 73.94459717 21.77291504 74.87747559 21.2434082 75.83862305 C20 78 20 78 19 79 C17.43827255 79.08685603 15.87270656 79.10702219 14.30859375 79.09765625 C13.36435547 79.09443359 12.42011719 79.09121094 11.44726562 79.08789062 C10.45404297 79.07951172 9.46082031 79.07113281 8.4375 79.0625 C7.44041016 79.05798828 6.44332031 79.05347656 5.41601562 79.04882812 C2.94395151 79.03700007 0.47200482 79.02051849 -2 79 C3.35518235 69.25423337 9.18753509 59.87514131 15.25048828 50.55419922 C15.83556152 49.64814941 16.42063477 48.74209961 17.0234375 47.80859375 C17.81113525 46.59901001 17.81113525 46.59901001 18.61474609 45.36499023 C20.71473123 41.85265952 20.71473123 41.85265952 22 38 C20.7841623 34.84488691 20.7841623 34.84488691 18.65234375 31.66796875 C18.28403946 31.07252762 17.91573517 30.47708649 17.53627014 29.86360168 C16.35355099 27.96038852 15.14626523 26.07425314 13.9375 24.1875 C13.15001637 22.93008475 12.36419046 21.67162969 11.58007812 20.41210938 C8.85958467 16.05492074 6.10767488 11.71849413 3.32470703 7.40087891 C0 2.20316361 0 2.20316361 0 0 Z " fill="#FAFAFA" transform="translate(497,486)"/>
<path d="M0 0 C6.6 0 13.2 0 20 0 C20.47308594 1.49144531 20.94617188 2.98289062 21.43359375 4.51953125 C25.55088068 17.45987666 29.75331395 30.36617538 34.11694336 43.22583008 C34.47925049 44.3011499 34.84155762 45.37646973 35.21484375 46.484375 C35.53573975 47.43022461 35.85663574 48.37607422 36.18725586 49.35058594 C36.96576885 51.88841202 37.52948803 54.38926483 38 57 C38.33 57 38.66 57 39 57 C39.268125 56.06285156 39.53625 55.12570312 39.8125 54.16015625 C45.06885717 35.96047903 50.95343117 17.95075121 57 0 C63.6 0 70.2 0 77 0 C74.29240286 11.06898909 70.24328857 21.63420322 66.3125 32.3125 C65.62262899 34.19581052 64.93317338 36.07927326 64.24414062 37.96289062 C62.86777596 41.72434755 61.48863974 45.48477228 60.10791016 49.24462891 C58.64081072 53.24387851 57.18317003 57.24643176 55.73193359 61.25146484 C55.36496872 62.26387741 54.99800385 63.27628998 54.61991882 64.31938171 C53.91545282 66.26449599 53.21197219 68.20996749 52.50959778 70.15583801 C52.19471909 71.02504379 51.87984039 71.89424957 51.55541992 72.78979492 C51.27840744 73.5566008 51.00139496 74.32340668 50.71598816 75.1134491 C50 77 50 77 49 79 C42.07 79 35.14 79 28 79 C26.81664062 75.77605469 25.63328125 72.55210937 24.4140625 69.23046875 C23.64440873 67.13426257 22.87471985 65.03806928 22.10498047 62.94189453 C20.4496744 58.43400709 18.79517341 53.92582521 17.14111328 49.41748047 C11.89277185 35.11638262 11.89277185 35.11638262 6.578125 20.83984375 C6.21713211 19.87509377 6.21713211 19.87509377 5.84884644 18.89085388 C4.78618605 16.05148559 3.71898993 13.2140127 2.64306641 10.37963867 C2.28390137 9.42162354 1.92473633 8.4636084 1.5546875 7.4765625 C1.25030762 6.67299316 0.94592773 5.86942383 0.63232422 5.04150391 C0 3 0 3 0 0 Z " fill="#FBFBFB" transform="translate(780,486)"/>
<path d="M0 0 C0.56886257 14.20049517 0.56886257 14.20049517 -3 19 C-8.40478966 24.12032704 -13.25085913 25.47278386 -20.55859375 25.3203125 C-24.19258098 24.84353338 -26.30721445 23.423507 -29 21 C-31.34578248 17.80120571 -31.47675156 14.89347111 -31 11 C-28.32289719 6.39538316 -24.89664926 4.65081055 -20 3 C-16.91648794 2.27914822 -13.81840284 1.77945617 -10.6875 1.3125 C-9.87732422 1.18294922 -9.06714844 1.05339844 -8.23242188 0.91992188 C-2.38678075 0 -2.38678075 0 0 0 Z " fill="#0A0A0A" transform="translate(751,528)"/>
<path d="M0 0 C4.39646865 2.21734941 7.07668341 5.78973529 8.671875 10.34375 C9.166875 13.80875 9.166875 13.80875 9.671875 17.34375 C-2.868125 17.34375 -15.408125 17.34375 -28.328125 17.34375 C-26.05884715 8.26663862 -26.05884715 8.26663862 -24.015625 5.53125 C-23.62761719 4.98855469 -23.23960937 4.44585937 -22.83984375 3.88671875 C-16.84661175 -2.23040435 -7.91616949 -2.23140348 0 0 Z " fill="#0F0F0F" transform="translate(460.328125,500.65625)"/>
<path d="M0 0 C4.83678171 2.28433371 6.73634317 6.42601396 8.9140625 11.01953125 C9.76171875 13.45703125 9.76171875 13.45703125 9.76171875 17.45703125 C-2.44828125 17.45703125 -14.65828125 17.45703125 -27.23828125 17.45703125 C-26.1899114 10.11844231 -25.071446 6.95291448 -19.61328125 2.14453125 C-13.97519487 -1.8614775 -6.61926336 -1.60572008 0 0 Z " fill="#0D0D0D" transform="translate(910.23828125,500.54296875)"/>
</svg>
